{
	"accessors" : 
	[
		{
			"bufferView" : 2,
			"byteOffset" : 0,
			"componentType" : 5126,
			"count" : 4694,
			"max" : 
			[
				1,
				1,
				1,
				1
			],
			"min" : 
			[
				5.692175545846112e-05,
				0.006584956776350737,
				0,
				1
			],
			"name" : "accessor_color_m0-PolyPaper5_-1409356",
			"type" : "VEC4"
		},
		{
			"bufferView" : 2,
			"byteOffset" : 75104,
			"componentType" : 5126,
			"count" : 4540,
			"max" : 
			[
				1,
				1,
				1,
				1
			],
			"min" : 
			[
				5.692175545846112e-05,
				0.006584956776350737,
				0.006584956776350737,
				1
			],
			"name" : "accessor_color_m1-PolyPaper12_-1409362",
			"type" : "VEC4"
		},
		{
			"bufferView" : 2,
			"byteOffset" : 147744,
			"componentType" : 5126,
			"count" : 1194,
			"max" : 
			[
				1,
				1,
				1,
				1
			],
			"min" : 
			[
				5.692175545846112e-05,
				0.05284162983298302,
				0.01188133470714092,
				1
			],
			"name" : "accessor_color_m2-PolyPaper5_-1409368",
			"type" : "VEC4"
		},
		{
			"bufferView" : 0,
			"byteOffset" : 0,
			"componentType" : 5123,
			"count" : 7368,
			"max" : 
			[
				4693
			],
			"min" : 
			[
				0
			],
			"name" : "accessor_indices_0_m0-PolyPaper5_-1409356",
			"type" : "SCALAR"
		},
		{
			"bufferView" : 0,
			"byteOffset" : 14736,
			"componentType" : 5123,
			"count" : 7008,
			"max" : 
			[
				4539
			],
			"min" : 
			[
				0
			],
			"name" : "accessor_indices_0_m1-PolyPaper12_-1409362",
			"type" : "SCALAR"
		},
		{
			"bufferView" : 0,
			"byteOffset" : 28752,
			"componentType" : 5123,
			"count" : 1860,
			"max" : 
			[
				1193
			],
			"min" : 
			[
				0
			],
			"name" : "accessor_indices_0_m2-PolyPaper5_-1409368",
			"type" : "SCALAR"
		},
		{
			"bufferView" : 1,
			"byteOffset" : 56328,
			"componentType" : 5126,
			"count" : 4694,
			"max" : 
			[
				1,
				1,
				1
			],
			"min" : 
			[
				-1,
				-1,
				-1
			],
			"name" : "accessor_normal_m0-PolyPaper5_-1409356",
			"type" : "VEC3"
		},
		{
			"bufferView" : 1,
			"byteOffset" : 167136,
			"componentType" : 5126,
			"count" : 4540,
			"max" : 
			[
				1,
				1,
				1
			],
			"min" : 
			[
				-1,
				-1,
				-1
			],
			"name" : "accessor_normal_m1-PolyPaper12_-1409362",
			"type" : "VEC3"
		},
		{
			"bufferView" : 1,
			"byteOffset" : 235944,
			"componentType" : 5126,
			"count" : 1194,
			"max" : 
			[
				1,
				1,
				1
			],
			"min" : 
			[
				-1,
				-1,
				-1
			],
			"name" : "accessor_normal_m2-PolyPaper5_-1409368",
			"type" : "VEC3"
		},
		{
			"bufferView" : 1,
			"byteOffset" : 0,
			"componentType" : 5126,
			"count" : 4694,
			"max" : 
			[
				2.339997,
				1.310096,
				3.029977
			],
			"min" : 
			[
				-1.5601,
				-1.400041,
				-1.640058
			],
			"name" : "accessor_position_m0-PolyPaper5_-1409356",
			"type" : "VEC3"
		},
		{
			"bufferView" : 1,
			"byteOffset" : 112656,
			"componentType" : 5126,
			"count" : 4540,
			"max" : 
			[
				1.84437,
				0.04710812,
				2.916575
			],
			"min" : 
			[
				-1.380098,
				-1.400054,
				-1.551688
			],
			"name" : "accessor_position_m1-PolyPaper12_-1409362",
			"type" : "VEC3"
		},
		{
			"bufferView" : 1,
			"byteOffset" : 221616,
			"componentType" : 5126,
			"count" : 1194,
			"max" : 
			[
				1.854877,
				0.3599283,
				3.029976
			],
			"min" : 
			[
				-1.560009,
				-1.400037,
				-1.640058
			],
			"name" : "accessor_position_m2-PolyPaper5_-1409368",
			"type" : "VEC3"
		}
	],
	"asset" : 
	{
		"copyright" : "Unknown",
		"generator" : "glTF 1-to-2 Upgrader for Google Blocks",
		"version" : "2.0"
	},
	"bufferViews" : 
	[
		{
			"buffer" : 0,
			"byteLength" : 32472,
			"byteOffset" : 0,
			"name" : "ushortBufferView",
			"target" : 34963
		},
		{
			"buffer" : 0,
			"byteLength" : 250272,
			"byteOffset" : 32472,
			"byteStride" : 12,
			"name" : "vec3BufferView",
			"target" : 34962
		},
		{
			"buffer" : 0,
			"byteLength" : 166848,
			"byteOffset" : 282744,
			"byteStride" : 16,
			"name" : "vec4BufferView",
			"target" : 34962
		}
	],
	"buffers" : 
	[
		{
			"byteLength" : 449592,
			"name" : "model",
			"uri" : "model.bin"
		}
	],
	"materials" : 
	[
		{
			"alphaMode" : "OPAQUE",
			"doubleSided" : false,
			"name" : "BlocksPaper",
			"pbrMetallicRoughness" : 
			{
				"baseColorFactor" : 
				[
					1,
					1,
					1,
					1
				],
				"metallicFactor" : 0,
				"roughnessFactor" : 0.6
			}
		},
		{
			"alphaMode" : "BLEND",
			"doubleSided" : false,
			"name" : "BlocksGlass",
			"pbrMetallicRoughness" : 
			{
				"baseColorFactor" : 
				[
					0.2,
					0.2,
					1,
					0.3
				],
				"metallicFactor" : 1,
				"roughnessFactor" : 0.4
			}
		},
		{
			"alphaMode" : "OPAQUE",
			"doubleSided" : true,
			"name" : "BlocksGem",
			"pbrMetallicRoughness" : 
			{
				"baseColorFactor" : 
				[
					1,
					0.4,
					1,
					1
				],
				"metallicFactor" : 0,
				"roughnessFactor" : 0.1
			}
		}
	],
	"meshes" : 
	[
		{
			"name" : "mesh_m0-PolyPaper5_-1409356",
			"primitives" : 
			[
				{
					"attributes" : 
					{
						"COLOR_0" : 0,
						"NORMAL" : 6,
						"POSITION" : 9
					},
					"indices" : 3,
					"material" : 0,
					"mode" : 4
				}
			]
		},
		{
			"name" : "mesh_m1-PolyPaper12_-1409362",
			"primitives" : 
			[
				{
					"attributes" : 
					{
						"COLOR_0" : 1,
						"NORMAL" : 7,
						"POSITION" : 10
					},
					"indices" : 4,
					"material" : 0,
					"mode" : 4
				}
			]
		},
		{
			"name" : "mesh_m2-PolyPaper5_-1409368",
			"primitives" : 
			[
				{
					"attributes" : 
					{
						"COLOR_0" : 2,
						"NORMAL" : 8,
						"POSITION" : 11
					},
					"indices" : 5,
					"material" : 0,
					"mode" : 4
				}
			]
		}
	],
	"nodes" : 
	[
		{
			"matrix" : 
			[
				1,
				0,
				0,
				0,
				0,
				1,
				0,
				0,
				0,
				0,
				1,
				0,
				0,
				0,
				0,
				1
			],
			"mesh" : 1,
			"name" : "node_MeshObject-1247046656-PolyPaper12"
		},
		{
			"matrix" : 
			[
				1,
				0,
				0,
				0,
				0,
				1,
				0,
				0,
				0,
				0,
				1,
				0,
				0,
				0,
				0,
				1
			],
			"mesh" : 0,
			"name" : "node_MeshObject-1819125760-PolyPaper5"
		},
		{
			"matrix" : 
			[
				1,
				0,
				0,
				0,
				0,
				1,
				0,
				0,
				0,
				0,
				1,
				0,
				0,
				0,
				0,
				1
			],
			"mesh" : 2,
			"name" : "node_MeshObject-2044023808-PolyPaper5"
		}
	],
	"scene" : 0,
	"scenes" : 
	[
		{
			"extras" : {},
			"name" : "defaultScene",
			"nodes" : 
			[
				1,
				0,
				2
			]
		}
	]
}